<svg xmlns="http://www.w3.org/2000/svg" xmlns:xlink="http://www.w3.org/1999/xlink" preserveAspectRatio="xMidYMid meet"
    version="1.0" viewBox="19.1 20.8 80.9 77.6" zoomAndPan="magnify" style="fill: rgb(0, 0, 0);"
    original_string_length="1412">
    <g id="__id69_sym0z0ln4n" style="fill: rgb(0, 191, 99);">
        <path
            d="M99.9,59.3c0-0.3-0.1-0.5-0.1-0.7c0-0.2-0.1-0.5-0.2-0.7c-0.1-0.2-0.2-0.5-0.3-0.7c-0.1-0.2-0.2-0.5-0.3-0.7 c-0.1-0.2-0.2-0.4-0.4-0.6c-0.1-0.2-0.3-0.5-0.5-0.7c-0.1-0.1-0.1-0.2-0.2-0.3L70.7,24.3c-2.9-3.2-7.8-3.5-11.1-0.6 c-3.2,2.9-3.5,7.8-0.6,11.1L81.6,60L59,85.3c-2.9,3.2-2.6,8.2,0.6,11.1c1.5,1.3,3.4,2,5.2,2c2.2,0,4.3-0.9,5.8-2.6L98,65.2 c0.1-0.1,0.1-0.2,0.2-0.3c0.2-0.2,0.3-0.4,0.5-0.7c0.1-0.2,0.3-0.4,0.4-0.6c0.1-0.2,0.2-0.5,0.3-0.7c0.1-0.2,0.2-0.5,0.3-0.7 c0.1-0.2,0.1-0.5,0.2-0.7c0-0.2,0.1-0.5,0.1-0.7c0-0.2,0-0.5,0-0.7C99.9,59.7,99.9,59.5,99.9,59.3z"
            style="fill: inherit;" />
        <path
            d="M61.2,64.9c0.2-0.2,0.3-0.4,0.5-0.7c0.1-0.2,0.3-0.4,0.4-0.6c0.1-0.2,0.2-0.5,0.3-0.7c0.1-0.2,0.2-0.5,0.3-0.7 c0.1-0.2,0.1-0.5,0.2-0.7c0-0.2,0.1-0.5,0.1-0.7c0-0.2,0-0.5,0-0.7c0-0.2,0-0.5,0-0.7c0-0.3-0.1-0.5-0.1-0.7c0-0.2-0.1-0.5-0.2-0.7 c-0.1-0.2-0.2-0.5-0.3-0.7c-0.1-0.2-0.2-0.5-0.3-0.7c-0.1-0.2-0.2-0.4-0.4-0.6c-0.1-0.2-0.3-0.5-0.5-0.7c-0.1-0.1-0.1-0.2-0.2-0.3 L33.7,24.3c-2.9-3.2-7.8-3.5-11.1-0.6c-3.2,2.9-3.5,7.8-0.6,11.1L44.7,60L22,85.3c-2.9,3.2-2.6,8.2,0.6,11.1c1.5,1.3,3.4,2,5.2,2 c2.2,0,4.3-0.9,5.8-2.6L61,65.2C61.1,65.1,61.1,65,61.2,64.9z"
            style="fill: inherit;" />
    </g>
</svg>